<svg width="56" height="56" viewBox="0 0 56 56" fill="none" xmlns="http://www.w3.org/2000/svg">
<path d="M35.21 48.23C35.6533 48.23 36.0967 48.0667 36.4467 47.7167C37.1233 47.04 37.1233 45.92 36.4467 45.2433L21.2333 30.03C20.1133 28.91 20.1133 27.09 21.2333 25.97L36.4467 10.7567C37.1233 10.08 37.1233 8.96 36.4467 8.28333C35.77 7.60667 34.65 7.60667 33.9733 8.28333L18.76 23.4967C17.57 24.6867 16.8933 26.2967 16.8933 28C16.8933 29.7033 17.5467 31.3133 18.76 32.5033L33.9733 47.7167C34.3233 48.0433 34.7667 48.23 35.21 48.23Z" fill="#E56083"/>
</svg>
