<svg width="18" height="18" viewBox="0 0 18 18" fill="none" xmlns="http://www.w3.org/2000/svg">
<path d="M9 17.0625C4.5525 17.0625 0.9375 13.4475 0.9375 9C0.9375 4.5525 4.5525 0.9375 9 0.9375C13.4475 0.9375 17.0625 4.5525 17.0625 9C17.0625 13.4475 13.4475 17.0625 9 17.0625ZM9 2.0625C5.175 2.0625 2.0625 5.175 2.0625 9C2.0625 12.825 5.175 15.9375 9 15.9375C12.825 15.9375 15.9375 12.825 15.9375 9C15.9375 5.175 12.825 2.0625 9 2.0625Z" fill="#292D32"/>
<path d="M9.00012 11.2579C8.85762 11.2579 8.71512 11.2054 8.60262 11.0929L5.95512 8.44543C5.73762 8.22793 5.73762 7.86793 5.95512 7.65043C6.17262 7.43293 6.53262 7.43293 6.75012 7.65043L9.00012 9.90043L11.2501 7.65043C11.4676 7.43293 11.8276 7.43293 12.0451 7.65043C12.2626 7.86793 12.2626 8.22793 12.0451 8.44543L9.39762 11.0929C9.28512 11.2054 9.14262 11.2579 9.00012 11.2579Z" fill="#292D32"/>
</svg>
