<svg width="37" height="37" viewBox="0 0 37 37" fill="none" xmlns="http://www.w3.org/2000/svg">
<path d="M23.2637 31.8662C23.5567 31.8662 23.8496 31.7583 24.0808 31.5271C24.5279 31.08 24.5279 30.34 24.0808 29.8929L14.0292 19.8412C13.2892 19.1012 13.2892 17.8987 14.0292 17.1587L24.0808 7.10708C24.5279 6.66 24.5279 5.92 24.0808 5.47292C23.6337 5.02583 22.8937 5.02583 22.4467 5.47292L12.395 15.5246C11.6087 16.3108 11.1617 17.3746 11.1617 18.5C11.1617 19.6254 11.5933 20.6892 12.395 21.4754L22.4467 31.5271C22.6779 31.7429 22.9708 31.8662 23.2637 31.8662Z" fill="#292D32"/>
</svg>
