<svg width="46" height="43" viewBox="0 0 46 43" fill="none" xmlns="http://www.w3.org/2000/svg">
<ellipse cx="23" cy="21.5" rx="23" ry="21.5" fill="white"/>
<path d="M19.395 31.3925C19.1733 31.3925 18.9517 31.3167 18.7767 31.1542C18.4383 30.84 18.4383 30.32 18.7767 30.0059L26.3833 22.9425C26.9433 22.4225 26.9433 21.5775 26.3833 21.0575L18.7767 13.9942C18.4383 13.68 18.4383 13.16 18.7767 12.8459C19.115 12.5317 19.675 12.5317 20.0133 12.8459L27.62 19.9092C28.215 20.4617 28.5533 21.2092 28.5533 22C28.5533 22.7909 28.2267 23.5384 27.62 24.0909L20.0133 31.1542C19.8383 31.3059 19.6167 31.3925 19.395 31.3925Z" fill="#292D32"/>
</svg>
