<svg width="46" height="46" viewBox="0 0 46 46" fill="none" xmlns="http://www.w3.org/2000/svg">
<path d="M21.3826 0.0630913C19.0467 0.287701 17.6092 0.575199 15.8123 1.16817C10.5115 2.91114 6.09121 6.46895 3.19824 11.3205C1.62598 13.944 0.583789 16.9986 0.161523 20.215C0.0177734 21.3201 0.0177734 24.6803 0.161523 25.7854C0.898242 31.3826 3.35996 36.1174 7.52871 39.9896C9.82871 42.1369 12.6947 43.808 15.8123 44.8322C18.274 45.6498 20.2236 45.9463 22.9998 45.9463C25.0482 45.9463 25.9557 45.8654 27.7615 45.4971C33.9518 44.2303 39.4771 40.2592 42.8014 34.6799C44.3736 32.0564 45.4068 29.0018 45.8381 25.7854C45.9818 24.6982 45.9818 21.4189 45.8381 20.3049C45.335 16.4236 44.0502 13.0365 41.8939 9.90997C41.2471 8.97559 40.9686 8.81387 40.5283 9.13731C40.1061 9.45176 40.16 9.79317 40.7709 10.6826C42.8104 13.6475 44.0412 16.8998 44.4814 20.4846C44.6521 21.8592 44.6252 24.6084 44.4365 25.9201C43.7357 30.7447 41.6783 34.8775 38.2732 38.2736C34.8771 41.6787 30.7533 43.7361 25.9197 44.4369C24.4463 44.6525 21.5533 44.6525 20.0799 44.4369C15.2463 43.7361 11.1225 41.6787 7.72637 38.2736C4.32129 34.8775 2.26387 30.7537 1.56309 25.9201C1.34746 24.4467 1.34746 21.5537 1.56309 20.0803C2.26387 15.2467 4.32129 11.1229 7.72637 7.72676C11.1225 4.32169 15.2463 2.26426 20.0799 1.56348C21.5533 1.34786 24.4463 1.34786 25.9197 1.56348C30.3311 2.19239 34.0865 3.94434 37.4826 6.93614C38.1385 7.51114 38.3361 7.63692 38.5787 7.63692C38.9471 7.63692 39.1986 7.37637 39.1986 6.99903C39.1986 6.66661 38.7135 6.14551 37.4467 5.1213C33.8709 2.22832 29.5764 0.494343 24.9764 0.0900459C24.015 0.00918579 22.0924 -0.00878525 21.3826 0.0630913Z" fill="black"/>
<path d="M22.3707 10.6555C20.7355 10.925 19.7921 11.4012 18.7769 12.4344C17.7078 13.5215 17.1507 14.8781 17.1328 16.3965C17.1238 17.4117 17.2496 18.0227 17.6179 18.8492C18.1839 20.116 19.1722 21.1582 20.3402 21.7242C21.3015 22.1914 21.8675 22.3262 22.9546 22.3262C24.6527 22.3262 25.9375 21.7871 27.1324 20.5832C29.0191 18.6785 29.3605 15.7586 27.9589 13.4316C27.2582 12.2547 25.8117 11.1766 24.482 10.8352C23.907 10.6914 22.748 10.5926 22.3707 10.6555ZM24.4011 12.2457C25.4343 12.623 26.3058 13.3328 26.8269 14.2223C28.2914 16.7109 27.1234 19.7926 24.3562 20.7629C22.8019 21.3109 21.032 20.8707 19.8011 19.6398C19.2351 19.0738 18.9207 18.5438 18.6421 17.7172C18.4265 17.0434 18.4894 15.6148 18.7679 14.8961C19.1992 13.773 20.2593 12.7219 21.3644 12.3086C22.2898 11.9582 23.5476 11.9313 24.4011 12.2457Z" fill="black"/>
<path d="M15.8125 23.8984C14.393 24.2668 12.9375 25.1922 12.9375 25.7223C12.9375 26.0098 13.198 26.2973 13.5215 26.3781C13.6922 26.423 13.8808 26.3512 14.3121 26.0727C15.0308 25.5965 15.543 25.3719 16.2976 25.2012C16.8187 25.0754 17.7262 25.0664 23.0269 25.0844L29.1543 25.1113L29.7113 25.318C31.3914 25.9469 32.6222 27.1867 33.2242 28.8578C33.4488 29.4867 33.4578 29.6125 33.4937 31.7328L33.5297 33.9609H31.9933H30.457V32.3527C30.457 30.6277 30.3941 30.2684 30.0437 30.1066C29.7203 29.9629 29.6035 29.9809 29.316 30.2234L29.0644 30.4391L29.0375 32.2L29.0015 33.9609L22.7933 33.943L16.5762 33.916L16.5492 32.1461L16.5312 30.3762L16.2887 30.1965C16.0012 29.9629 15.7137 29.9539 15.4441 30.1785C15.2285 30.3492 15.2285 30.3852 15.2015 32.1551L15.1746 33.9609L13.5844 33.943L11.9941 33.916L11.9672 32.2539C11.9312 30.2145 12.0301 29.4508 12.4433 28.3727C12.7937 27.4652 12.7847 27.2766 12.3715 26.998C12.1199 26.8363 11.7695 26.8902 11.5539 27.1148C11.3203 27.3844 10.8531 28.6781 10.7183 29.4418C10.6285 29.9809 10.6015 30.7715 10.6195 32.2898C10.6465 34.6078 10.6555 34.6168 11.2664 35.075C11.509 35.2637 11.5449 35.2637 22.7304 35.2637C33.916 35.2637 33.9519 35.2637 34.1945 35.075C34.8144 34.6168 34.8144 34.6168 34.8414 32.182C34.8594 30.4211 34.8414 29.8281 34.7246 29.2531C34.2574 26.9441 32.7031 25.0754 30.5469 24.1949C29.3789 23.7277 29.2621 23.7188 22.6406 23.7277C16.8547 23.7277 16.4504 23.7367 15.8125 23.8984Z" fill="black"/>
</svg>
