<svg width="70" height="68" viewBox="0 0 70 68" fill="none" xmlns="http://www.w3.org/2000/svg">
<path d="M2.17124 0.300251C-0.591146 1.72258 -0.727897 5.98956 1.95243 7.47373C2.55414 7.81386 2.96439 7.90662 4.05841 7.96846L5.42592 8.06122L5.7131 9.15888C6.71139 12.9775 6.79344 16.9199 5.9319 20.6148C5.37122 23.042 5.52165 22.8565 4.05841 22.8565C2.60884 22.8565 1.87038 23.1503 1.10457 23.9851C-0.659521 25.8867 -0.221916 29.1488 1.95243 30.3547C2.55414 30.6948 2.96439 30.7876 4.07208 30.8494L5.4396 30.9422L4.81054 31.5296C4.01738 32.2563 2.81397 33.8177 2.23961 34.8381C-0.440719 39.5689 -0.727897 45.1345 1.44645 50.1281C3.30627 54.4415 7.09429 57.6417 11.2652 58.4302L12.2908 58.6312V62.6817C12.2908 65.5109 12.3455 66.8714 12.455 67.1497C12.6327 67.6135 13.2071 68 13.6857 68C13.8635 68 15.2584 67.227 16.8037 66.2994L19.5934 64.6142L20.0173 64.8925C21.4259 65.851 25.1455 68 25.3916 68C25.9113 68 26.3626 67.7063 26.5814 67.2425C26.7455 66.856 26.7865 66.0829 26.7865 62.7436V58.7239H46.7933C69.1248 58.7239 67.6479 58.8012 68.8103 57.6417C70.2462 56.2039 70.3692 53.7767 69.0974 52.107C68.3863 51.164 67.6205 50.8084 65.9932 50.7002L64.5983 50.6074L64.3111 49.6025C63.7231 47.6236 63.518 45.9694 63.518 43.2639C63.518 40.5429 63.7094 38.9505 64.2975 36.9716L64.612 35.9203L65.9658 35.8275C67.5111 35.7193 68.0855 35.5029 68.8786 34.6835C69.5077 34.0496 70 32.7974 70 31.8234C70 30.8494 69.5077 29.5971 68.8786 28.9633C68.0718 28.1284 67.5248 27.9274 65.9385 27.8347L64.5436 27.7574L65.5692 26.6752C67.7162 24.418 69.0427 21.8052 69.6855 18.6205C70.0273 16.9199 70 13.5496 69.6308 11.8799C68.3727 6.22147 64.7487 2.01632 59.7983 0.470312L58.4445 0.052889L30.6156 0.0219689C2.85499 -0.0244114 2.78662 -0.0244114 2.17124 0.300251ZM58.9231 3.26859C62.1505 4.27349 64.8855 6.80895 66.2393 10.1019C67.1556 12.3127 67.4701 14.3535 67.2513 16.7343C66.8 21.7125 63.7368 25.8249 59.306 27.3709L58.3077 27.7265L30.7386 27.7728C3.41567 27.8038 3.16952 27.8038 2.92337 27.4946C2.62252 27.1235 2.60884 26.4587 2.90969 26.1341C3.11482 25.8867 5.23447 25.8712 30.4515 25.7939C56.5436 25.7166 57.7881 25.7012 58.5129 25.4384C62.1505 24.047 64.5573 20.8467 65.0633 16.7343C65.5966 12.4673 63.6274 8.21582 60.1949 6.19055C57.9795 4.8919 60.865 5.00012 30.3557 4.95374C6.096 4.92282 3.1832 4.8919 2.97807 4.67546C2.49944 4.19619 2.59517 3.33043 3.15585 3.06761C3.3473 2.99031 14.2874 2.94393 30.7523 2.95939C56.2975 2.99031 58.0889 3.02123 58.9231 3.26859ZM58.6496 8.6487C59.9214 9.34441 60.7282 10.1174 61.412 11.3233C63.1351 14.3535 62.7658 18.2185 60.5094 20.6612C60.0445 21.1714 59.3471 21.7589 58.9505 21.9908C57.3778 22.8874 58.6906 22.8565 32.3386 22.8565H8.16095L8.243 22.5009C8.2977 22.3154 8.46181 21.5579 8.62591 20.8003L8.91309 19.4553H15.9421H22.9848L23.3814 19.007C23.819 18.4968 23.8874 17.9711 23.5865 17.3064C23.2173 16.5179 23.1763 16.5179 15.9011 16.5179H9.13189L9.17291 15.3893L9.21394 14.2762L12.7695 14.1989C14.725 14.1525 16.4071 14.0597 16.5028 13.9979C16.5848 13.9206 16.7626 13.6578 16.8857 13.4104C17.1455 12.8229 17.0361 12.1891 16.5848 11.7098C16.243 11.3388 16.2156 11.3388 12.5644 11.2924L8.89941 11.246L8.59856 9.82367C8.43446 9.05066 8.25668 8.32404 8.22933 8.21582C8.17463 8.04576 12.7695 8.01484 32.8856 8.04576L57.624 8.09214L58.6496 8.6487ZM66.9368 31.0195C67.0188 31.0813 67.1556 31.2823 67.2513 31.4678C67.4427 31.9007 67.1966 32.5655 66.8 32.6737C66.6359 32.7201 54.424 32.7664 39.6412 32.7974L12.7695 32.8283L11.7165 33.1684C8.40711 34.2352 5.91823 37.0953 5.09772 40.7902C4.79686 42.0889 4.79686 44.4388 5.09772 45.7375C5.89088 49.3242 8.40711 52.2925 11.4567 53.2511L12.2908 53.5139V54.5652V55.6319L11.8532 55.5392C8.46181 54.8898 5.39857 52.3544 3.8943 48.9532C3.00542 46.9434 2.69089 45.4746 2.70457 43.2639C2.70457 41.254 2.99174 39.6771 3.6755 38.0229C5.12507 34.5444 8.21565 31.7925 11.5114 31.0504C12.2225 30.8958 66.7316 30.8649 66.9368 31.0195ZM61.7539 36.044C61.7265 36.1522 61.5488 36.8788 61.3847 37.6673L61.0838 39.0896H57.6377C54.6428 39.0896 54.1505 39.1205 53.7266 39.3679C52.8377 39.8626 52.6873 40.9758 53.3984 41.7333C53.7402 42.1043 53.7813 42.1043 57.2958 42.1507L60.8376 42.1971V43.2793V44.3461H54.1231C48.3386 44.3461 47.3403 44.377 46.9574 44.578C46.2873 44.949 46.0411 45.7684 46.3557 46.5569C46.6839 47.3762 46.5608 47.3608 54.0821 47.4072L61.0838 47.4535L61.3847 48.8759C61.5488 49.6489 61.7265 50.3755 61.7539 50.4837C61.8086 50.6538 58.4445 50.6847 44.3044 50.6847H26.7865V49.0614V47.4381H28.8241C31.2309 47.4381 31.6002 47.3762 32.0514 46.8506C32.7626 46.0467 32.3249 44.6398 31.2856 44.4234C31.0258 44.377 26.8412 44.3461 21.9729 44.377L13.1114 44.4234L12.7421 44.8562L12.3592 45.2737L12.3182 47.8246C12.2772 49.6334 12.2225 50.3755 12.1131 50.3755C12.0173 50.3755 11.6481 50.2054 11.2652 50.0045C7.87377 48.2111 6.49258 43.403 8.2977 39.6616C8.77633 38.6567 10.0071 37.2808 10.8823 36.7397C12.3729 35.8121 10.855 35.8585 37.4395 35.8585C57.1454 35.843 61.8086 35.8739 61.7539 36.044ZM24.1882 55.7092C24.1882 60.2545 24.1609 63.9804 24.1335 63.9804C24.1062 63.9804 23.1626 63.4238 22.0549 62.7436C20.66 61.8933 19.8669 61.5068 19.5524 61.5068C19.1148 61.5068 18.5677 61.8005 15.8874 63.4702L15.0259 64.0113V55.7247V47.4381H19.6071H24.1882V55.7092ZM66.9368 53.9004C67.265 54.1478 67.4154 54.6889 67.2513 55.0444C67.1556 55.2454 67.0188 55.4464 66.9368 55.5082C66.8547 55.5701 57.7881 55.6319 46.7933 55.6319H26.7865V54.7043V53.7767H46.7933C57.7881 53.7767 66.8547 53.8386 66.9368 53.9004Z" fill="black"/>
<path d="M26.2801 17.8887C25.2952 18.8318 25.815 20.4551 27.1007 20.4551C28.66 20.4551 28.7421 17.8578 27.1828 17.5795C26.7998 17.5022 26.622 17.564 26.2801 17.8887Z" fill="black"/>
</svg>
