<svg width="46" height="46" viewBox="0 0 46 46" fill="none" xmlns="http://www.w3.org/2000/svg">
<path d="M1.72656 0.785938C1.20156 1.02656 0.971875 1.26719 0.742188 1.81406C0.6 2.16406 0.578125 3.32344 0.578125 10.8813C0.578125 19.0625 0.589063 19.5766 0.785938 19.9922C1.02656 20.5172 1.26719 20.7469 1.81406 20.9766C2.16406 21.1188 3.33438 21.1406 10.9141 21.1406C17.9797 21.1406 19.6859 21.1078 19.9703 20.9875C20.4406 20.8016 21.0094 20.1344 21.0859 19.6969C21.1188 19.5 21.1406 15.3984 21.1188 10.575L21.0859 1.81406L20.7688 1.40938C20.5938 1.17969 20.2547 0.895313 20.0031 0.785938C19.5766 0.589063 19.1172 0.578125 10.8594 0.578125C2.65625 0.578125 2.14219 0.589063 1.72656 0.785938ZM17.4219 10.8594V17.4219H10.8594H4.29688V10.9359C4.29688 7.35938 4.32969 4.40625 4.37344 4.37344C4.40625 4.32969 7.35938 4.29688 10.9359 4.29688H17.4219V10.8594Z" fill="#E56083"/>
<path d="M25.9969 0.785938C25.7453 0.895313 25.4062 1.17969 25.2312 1.40938L24.9141 1.81406L24.8812 10.575C24.8594 15.3984 24.8812 19.5 24.9141 19.6969C24.9906 20.1344 25.5594 20.8016 26.0297 20.9875C26.3141 21.1078 28.0203 21.1406 35.1078 21.1406C43.3438 21.1406 43.8578 21.1297 44.2734 20.9328C44.7984 20.6922 45.0281 20.4516 45.2578 19.9047C45.4 19.5547 45.4219 18.3953 45.4219 10.8594C45.4219 3.32344 45.4 2.16406 45.2578 1.81406C45.0281 1.26719 44.7984 1.02656 44.2734 0.785938C43.8578 0.589063 43.3438 0.578125 35.1406 0.578125C26.8828 0.578125 26.4234 0.589063 25.9969 0.785938ZM41.6813 10.8813L41.7031 17.4219H35.1406H28.5781V10.8594V4.29688L35.1188 4.31875L41.6484 4.35156L41.6813 10.8813Z" fill="#E56083"/>
<path d="M1.72656 25.0344C1.23438 25.2859 1.00469 25.5266 0.785938 26.0078C0.589063 26.4234 0.578125 26.9375 0.578125 35.1406C0.578125 43.3438 0.589063 43.8578 0.785938 44.2734C1.02656 44.7984 1.26719 45.0281 1.81406 45.2578C2.16406 45.4 3.32344 45.4219 10.8813 45.4219C19.1172 45.4219 19.5766 45.4109 20.0031 45.2141C20.2547 45.1047 20.5938 44.8203 20.7688 44.5906L21.0859 44.1859L21.1188 35.425C21.1406 30.6016 21.1188 26.5 21.0859 26.3031C21.0094 25.8656 20.4406 25.1984 19.9703 25.0125C19.6859 24.8922 17.9688 24.8594 10.8375 24.8594C3.08281 24.8594 2.01094 24.8813 1.72656 25.0344ZM17.4219 35.1406V41.7031L10.8922 41.6813L4.35156 41.6484L4.31875 35.1078L4.29688 28.5781H10.8594H17.4219V35.1406Z" fill="#E56083"/>
<path d="M26.0078 25.0125C25.5484 25.2094 24.9906 25.8766 24.9141 26.3031C24.8812 26.5 24.8594 30.6016 24.8812 35.425L24.9141 44.1859L25.2312 44.5906C25.4062 44.8203 25.7453 45.1047 25.9969 45.2141C26.4234 45.4109 26.8828 45.4219 35.1406 45.4219C43.3438 45.4219 43.8578 45.4109 44.2734 45.2141C44.7984 44.9734 45.0281 44.7328 45.2578 44.1859C45.4 43.8359 45.4219 42.6766 45.4219 35.1188C45.4219 26.8828 45.4109 26.4234 45.2141 25.9969C45.1047 25.7453 44.8203 25.4063 44.5906 25.2313L44.1859 24.9141L35.2609 24.8922C28.0422 24.8703 26.2703 24.8922 26.0078 25.0125ZM41.6813 35.1078L41.6484 41.6484L35.1188 41.6813L28.5781 41.7031V35.1406V28.5781H35.1406H41.7031L41.6813 35.1078Z" fill="#E56083"/>
</svg>
