<svg width="41" height="41" viewBox="0 0 41 41" fill="none" xmlns="http://www.w3.org/2000/svg">
<path d="M22.0179 23.6691L22.4969 23.0919C22.1993 22.845 21.7627 22.8648 21.4886 23.1377L22.0179 23.6691ZM17.2478 18.9185L17.7771 19.4499C18.0253 19.2027 18.0693 18.8166 17.8831 18.5198L17.2478 18.9185ZM4.19294 31.9201L4.72219 32.4515L4.72219 32.4515L4.19294 31.9201ZM4.19294 35.4205L3.6637 35.9519L3.6637 35.9519L4.19294 35.4205ZM20.5115 25.1693L21.0407 25.7007L21.0407 25.7007L20.5115 25.1693ZM20.7625 27.4195L20.0923 27.756C20.1099 27.7911 20.1302 27.8247 20.1531 27.8566L20.7625 27.4195ZM20.7625 30.9199L21.3617 31.3711C21.3652 31.3665 21.3686 31.3618 21.372 31.3571L20.7625 30.9199ZM15.4904 30.9199L16.0196 30.3885C15.727 30.0971 15.2538 30.0971 14.9611 30.3885L15.4904 30.9199ZM14.9883 31.42L14.459 30.8886C14.1805 31.166 14.1634 31.6113 14.4198 31.9092L14.9883 31.42ZM15.2393 34.9204L15.8384 35.3716C15.8419 35.367 15.8454 35.3623 15.8488 35.3575L15.2393 34.9204ZM10.7203 35.1705L11.2496 34.639C10.9569 34.3476 10.4837 34.3476 10.1911 34.639L10.7203 35.1705ZM5.69928 36.9207L5.17003 37.4521C5.18363 37.4656 5.19773 37.4786 5.21233 37.4911L5.69928 36.9207ZM36.8333 14.1679C36.8333 19.6886 32.3388 24.1692 26.7879 24.1692V25.6692C33.1614 25.6692 38.3333 20.5228 38.3333 14.1679H36.8333ZM16.7426 14.1679C16.7426 8.64728 21.2371 4.16666 26.7879 4.16666V2.66666C20.4145 2.66666 15.2426 7.81307 15.2426 14.1679H16.7426ZM26.7879 4.16666C32.3388 4.16666 36.8333 8.64728 36.8333 14.1679H38.3333C38.3333 7.81307 33.1614 2.66666 26.7879 2.66666V4.16666ZM26.7879 24.1692C26.2892 24.1692 25.4493 24.1108 24.5989 23.9348C23.7263 23.7541 22.9545 23.4717 22.4969 23.0919L21.5389 24.2462C22.2863 24.8665 23.3556 25.2092 24.2948 25.4036C25.2562 25.6026 26.1988 25.6692 26.7879 25.6692V24.1692ZM15.2426 14.1679C15.2426 15.6552 15.5814 16.933 15.9172 17.836C16.0856 18.2888 16.2548 18.6514 16.3837 18.904C16.4483 19.0305 16.5029 19.1297 16.5427 19.1993C16.5626 19.2341 16.5788 19.2615 16.5906 19.2813C16.5966 19.2911 16.6014 19.2991 16.6051 19.3051C16.6069 19.3081 16.6085 19.3106 16.6097 19.3126C16.6103 19.3136 16.6109 19.3145 16.6114 19.3153C16.6116 19.3156 16.6118 19.316 16.612 19.3163C16.6121 19.3165 16.6123 19.3167 16.6123 19.3168C16.6124 19.317 16.6126 19.3172 17.2478 18.9185C17.8831 18.5198 17.8832 18.52 17.8833 18.5202C17.8834 18.5202 17.8835 18.5204 17.8835 18.5205C17.8836 18.5207 17.8837 18.5209 17.8838 18.521C17.884 18.5213 17.8841 18.5214 17.8841 18.5215C17.8842 18.5216 17.8839 18.5212 17.8834 18.5203C17.8823 18.5185 17.8801 18.5149 17.8768 18.5095C17.8703 18.4986 17.8595 18.4803 17.8451 18.4551C17.8162 18.4045 17.7728 18.326 17.7197 18.222C17.6133 18.0136 17.4686 17.7042 17.3232 17.3132C17.0313 16.5285 16.7426 15.431 16.7426 14.1679H15.2426ZM16.7186 18.3871L3.6637 31.3886L4.72219 32.4515L17.7771 19.4499L16.7186 18.3871ZM3.6637 31.3886C3.28583 31.765 2.8393 32.4268 2.70588 33.243C2.56477 34.1063 2.78743 35.0792 3.6637 35.9519L4.72219 34.8891C4.19255 34.3616 4.12231 33.876 4.18623 33.485C4.25784 33.0469 4.51426 32.6586 4.72219 32.4515L3.6637 31.3886ZM21.4886 23.1377L19.9822 24.6379L21.0407 25.7007L22.5471 24.2005L21.4886 23.1377ZM19.9822 24.6379C19.6504 24.9684 19.3849 25.2933 19.2517 25.6355C19.0912 26.0477 19.1422 26.4294 19.323 26.7535C19.456 26.9919 19.6817 27.2178 19.7792 27.3254C19.9091 27.4688 20.0124 27.5968 20.0923 27.756L21.4328 27.083C21.2617 26.7422 21.0511 26.4952 20.8908 26.3182C20.698 26.1054 20.657 26.0657 20.633 26.0228C20.6329 26.0227 20.6375 26.0308 20.6426 26.0462C20.6478 26.0623 20.6526 26.0828 20.6545 26.1063C20.6586 26.1578 20.6468 26.1867 20.6495 26.1798C20.6653 26.1391 20.745 25.9953 21.0407 25.7007L19.9822 24.6379ZM20.1634 30.4688C19.8681 30.861 19.3023 31.3265 18.608 31.4582C17.9679 31.5797 17.0796 31.4442 16.0196 30.3885L14.9611 31.4514C16.3113 32.796 17.6825 33.1606 18.8876 32.932C20.0386 32.7136 20.9039 31.979 21.3617 31.3711L20.1634 30.4688ZM20.7625 27.4195C20.1531 27.8566 20.1529 27.8564 20.1527 27.8561C20.1526 27.856 20.1525 27.8557 20.1523 27.8556C20.1521 27.8553 20.1519 27.855 20.1517 27.8547C20.1513 27.8541 20.151 27.8537 20.1507 27.8533C20.1502 27.8526 20.15 27.8523 20.1501 27.8524C20.1502 27.8526 20.1514 27.8543 20.1535 27.8575C20.1578 27.8639 20.166 27.8762 20.1771 27.8941C20.1993 27.9299 20.233 27.9871 20.2716 28.0623C20.3494 28.2143 20.4425 28.4311 20.5038 28.6878C20.624 29.1904 20.6229 29.8277 20.1531 30.4828L21.372 31.3571C22.1574 30.2619 22.1564 29.149 21.9627 28.339C21.8672 27.9394 21.7248 27.6092 21.6066 27.3784C21.5471 27.2622 21.4925 27.169 21.451 27.1022C21.4302 27.0688 21.4126 27.0418 21.3991 27.0217C21.3924 27.0117 21.3867 27.0034 21.3821 26.9968C21.3799 26.9935 21.3779 26.9907 21.3762 26.9883C21.3753 26.9871 21.3745 26.986 21.3739 26.985C21.3735 26.9845 21.3732 26.9841 21.3729 26.9836C21.3727 26.9834 21.3725 26.9831 21.3724 26.983C21.3722 26.9827 21.372 26.9824 20.7625 27.4195ZM14.6402 34.4692C14.366 34.8334 13.8333 35.2218 13.2153 35.3402C12.6427 35.4499 11.9522 35.3388 11.2496 34.639L10.1911 35.7019C11.2458 36.7523 12.4383 37.0163 13.4975 36.8134C14.5114 36.6192 15.3595 36.0076 15.8384 35.3716L14.6402 34.4692ZM14.9883 31.42C14.4198 31.9092 14.4196 31.909 14.4194 31.9088C14.4193 31.9087 14.4191 31.9085 14.419 31.9083C14.4188 31.908 14.4185 31.9078 14.4183 31.9075C14.4179 31.9071 14.4176 31.9067 14.4174 31.9064C14.4169 31.9059 14.4168 31.9057 14.417 31.906C14.4174 31.9065 14.4191 31.9085 14.422 31.9121C14.4278 31.9192 14.4381 31.9322 14.4521 31.9507C14.4802 31.9879 14.5223 32.0464 14.571 32.123C14.6694 32.278 14.7877 32.4961 14.8733 32.7519C15.0407 33.252 15.0781 33.8584 14.6299 34.4833L15.8488 35.3575C16.6559 34.2322 16.5677 33.0884 16.2957 32.2758C16.1617 31.8754 15.9818 31.5465 15.8371 31.3187C15.7641 31.2038 15.6983 31.1119 15.649 31.0465C15.6242 31.0138 15.6035 30.9875 15.5877 30.9681C15.5799 30.9584 15.5733 30.9504 15.5681 30.9442C15.5655 30.941 15.5632 30.9384 15.5613 30.9361C15.5604 30.935 15.5595 30.934 15.5587 30.9331C15.5584 30.9327 15.558 30.9322 15.5577 30.9318C15.5575 30.9317 15.5573 30.9314 15.5572 30.9313C15.5569 30.931 15.5567 30.9308 14.9883 31.42ZM15.5175 31.9514L16.0196 31.4514L14.9611 30.3885L14.459 30.8886L15.5175 31.9514ZM3.6637 35.9519L5.17003 37.4521L6.22852 36.3892L4.72219 34.8891L3.6637 35.9519ZM5.21233 37.4911C5.58846 37.8122 6.22964 38.1879 6.98921 38.3002C7.78609 38.418 8.70183 38.2392 9.49218 37.4521L8.43369 36.3892C8.01897 36.8023 7.59577 36.8735 7.20854 36.8163C6.78399 36.7535 6.39587 36.5292 6.18623 36.3502L5.21233 37.4911ZM9.49218 37.4521C10.6972 36.252 11.166 35.7851 11.2496 35.7019L10.1911 34.639C10.1073 34.7225 9.63884 35.189 8.43369 36.3892L9.49218 37.4521Z" fill="#7DA1FD"/>
<path d="M30.5537 14.1681C30.5537 16.2394 28.8677 17.9186 26.7879 17.9186C24.7081 17.9186 23.022 16.2394 23.022 14.1681C23.022 12.0968 24.7081 10.4177 26.7879 10.4177C28.8677 10.4177 30.5537 12.0968 30.5537 14.1681Z" stroke="#7DA1FD" stroke-width="1.5"/>
</svg>
