<svg width="48" height="68" viewBox="0 0 48 68" fill="none" xmlns="http://www.w3.org/2000/svg">
<path d="M20.0895 0.0823205C18.5733 0.587285 17.6384 1.74339 17.4488 3.3513L17.373 4.01573L14.6439 4.08217C11.9274 4.14861 11.9147 4.14861 11.4725 4.5074C11.2324 4.70673 10.9545 5.03894 10.8787 5.26485L10.7144 5.6635L6.65861 5.70337C2.66597 5.74323 2.57752 5.74323 1.98368 6.06216C1.65518 6.23491 1.16241 6.63357 0.89708 6.96578C0.0126349 8.01557 0 8.13517 0 14.0087V19.2444L0.315873 19.5633C0.707556 19.9885 1.18768 19.9885 1.57937 19.5633L1.89524 19.2444V14.0884C1.89524 9.1451 1.90787 8.91919 2.14794 8.49396C2.60279 7.70994 2.86813 7.67007 6.94921 7.67007H10.6133V8.65342V9.63677L8.25061 9.68993C6.0774 9.72979 5.8247 9.75637 5.34457 10.0221C4.71283 10.3809 4.08108 11.165 3.91683 11.7895C3.84102 12.0819 3.79048 21.3307 3.79048 36.9713C3.79048 60.5983 3.80311 61.7145 4.03054 62.2195C4.32114 62.8972 5.15505 63.6945 5.77416 63.8673C6.10267 63.9603 10.5502 64.0134 19.4957 64.0134H32.7371L33.0403 63.6812C33.4446 63.2693 33.4446 62.7643 33.0403 62.3524L32.7371 62.0202H19.521H6.30483L6.00159 61.6879L5.68572 61.369V36.865C5.68572 12.9323 5.68572 12.3476 5.92578 12.042C6.16584 11.7364 6.22902 11.7231 8.38959 11.6832L10.6133 11.6433V12.8792C10.6133 14.3542 10.7776 15.0452 11.2198 15.5635C11.9147 16.3342 11.3588 16.3076 24.0064 16.3076C36.6539 16.3076 36.098 16.3342 36.7929 15.5635C37.2351 15.0452 37.3994 14.3542 37.3994 12.8792V11.6433L39.6231 11.6832C41.7837 11.7231 41.8469 11.7364 42.0869 12.042C42.327 12.3476 42.327 12.9323 42.327 36.865V61.369L42.0111 61.6879C41.7079 62.0202 41.6953 62.0202 39.1051 62.0202C36.5149 62.0202 36.5023 62.0202 36.1991 62.3524C35.7947 62.7643 35.7947 63.2693 36.1991 63.6812C36.5023 64.0134 36.5149 64.0134 39.1304 64.0134C40.596 64.0134 41.9732 63.947 42.2386 63.8673C42.8577 63.6945 43.6916 62.8972 43.9822 62.2195C44.2096 61.7145 44.2222 60.5983 44.2222 36.9713C44.2222 21.3307 44.1717 12.0819 44.0959 11.7895C43.9316 11.165 43.2999 10.3809 42.6681 10.0221C42.188 9.75637 41.9353 9.72979 39.7747 9.68993L37.3994 9.63677V8.65342V7.67007H41.0635C45.1446 7.67007 45.4099 7.70994 45.8648 8.49396C46.1175 8.93248 46.1175 9.07866 46.1175 36.8384C46.1175 64.2792 46.1175 64.7576 45.8648 65.1695C45.3467 66.0732 47.0525 66.0067 24.0064 66.0067C0.960254 66.0067 2.66597 66.0732 2.14794 65.1695C1.89524 64.7576 1.89524 64.3457 1.89524 43.9743V23.2044L1.57937 22.8854C1.18768 22.4602 0.644381 22.4469 0.277968 22.8589L0 23.1778L0.0252699 44.2933C0.0631746 64.5848 0.0758096 65.422 0.303238 65.8738C0.694921 66.6579 1.51619 67.4552 2.24902 67.7342C2.90603 68 3.25981 68 24.0064 68C44.7529 68 45.1067 68 45.7637 67.7342C46.4965 67.4552 47.3178 66.6579 47.7095 65.8738C47.9369 65.422 47.9495 64.3988 47.9874 37.1042C48.0127 5.54391 48.0885 8.12188 47.1283 6.96578C46.8503 6.63357 46.3575 6.23491 46.029 6.06216C45.4352 5.74323 45.3341 5.74323 41.3794 5.70337L37.3362 5.6635L37.0835 5.18512C36.5655 4.18848 36.4391 4.1619 33.3815 4.08217L30.6397 4.01573L30.5639 3.3513C30.3996 2.00916 29.7552 1.01252 28.6307 0.387957L27.9864 0.0291664L24.1959 0.00258932C22.1111 -0.0106992 20.2664 0.0291664 20.0895 0.0823205ZM27.7337 2.14204C28.3907 2.43439 28.6055 2.89949 28.6939 4.25492C28.8203 6.07545 28.656 5.99572 32.3833 6.07545L35.441 6.14189V10.1949V14.2479H24.0064H12.5718V10.1949V6.14189L15.6294 6.07545C19.3567 5.99572 19.1925 6.07545 19.3188 4.25492C19.4072 2.92607 19.622 2.44768 20.2538 2.15533C20.8476 1.87627 27.1146 1.87627 27.7337 2.14204Z" fill="black"/>
<path d="M9.50162 26.7525C9.12257 27.0316 9.10994 27.8555 9.48898 28.2143C9.74168 28.4534 10.1713 28.4667 24.0065 28.4667C37.8418 28.4667 38.2713 28.4534 38.524 28.2143C38.7009 28.0415 38.7894 27.8023 38.7894 27.4568C38.7894 26.4735 39.9013 26.5399 24.0065 26.5399C11.3337 26.5399 9.75432 26.5665 9.50162 26.7525Z" fill="black"/>
<path d="M9.50162 33.928C9.12257 34.2071 9.10994 35.0309 9.48898 35.3897C9.74168 35.6289 10.1713 35.6422 24.0065 35.6422C37.8418 35.6422 38.2713 35.6289 38.524 35.3897C38.7009 35.217 38.7894 34.9778 38.7894 34.6323C38.7894 33.6489 39.9013 33.7154 24.0065 33.7154C11.3337 33.7154 9.75432 33.742 9.50162 33.928Z" fill="black"/>
<path d="M9.50162 41.1039C9.12257 41.383 9.10994 42.2068 9.48898 42.5656C9.74168 42.8048 10.1713 42.8181 24.0065 42.8181C37.8418 42.8181 38.2713 42.8048 38.524 42.5656C38.7009 42.3929 38.7894 42.1537 38.7894 41.8082C38.7894 40.8248 39.9013 40.8913 24.0065 40.8913C11.3337 40.8913 9.75432 40.9179 9.50162 41.1039Z" fill="black"/>
<path d="M9.50162 48.2798C9.12257 48.5589 9.10994 49.3828 9.48898 49.7416C9.74168 49.9808 10.1713 49.994 24.0065 49.994C37.8418 49.994 38.2713 49.9808 38.524 49.7416C38.7009 49.5688 38.7894 49.3296 38.7894 48.9841C38.7894 48.0008 39.9013 48.0672 24.0065 48.0672C11.3337 48.0672 9.75432 48.0938 9.50162 48.2798Z" fill="black"/>
</svg>
