<svg width="41" height="33" viewBox="0 0 41 33" fill="none" xmlns="http://www.w3.org/2000/svg">
<path fill-rule="evenodd" clip-rule="evenodd" d="M2.40172 2.41637C0 4.83274 0 8.72183 0 16.5C0 24.2782 0 28.1673 2.40172 30.5836C4.80345 33 8.66897 33 16.4 33H24.6C32.331 33 36.1965 33 38.5983 30.5836C41 28.1673 41 24.2782 41 16.5C41 8.72183 41 4.83274 38.5983 2.41637C36.1965 0 32.331 0 24.6 0H16.4C8.66897 0 4.80345 0 2.40172 2.41637ZM33.9811 7.25971C34.5247 7.91602 34.4366 8.89142 33.7843 9.43834L29.2815 13.2135C27.4645 14.737 25.9917 15.9718 24.6919 16.8129C23.3379 17.6891 22.0192 18.2426 20.5 18.2426C18.9808 18.2426 17.6621 17.6891 16.3081 16.8129C15.0083 15.9718 13.5356 14.737 11.7185 13.2136L7.21572 9.43834C6.56339 8.89142 6.47525 7.91602 7.01886 7.25971C7.56246 6.60341 8.53196 6.51474 9.18428 7.06166L13.61 10.7723C15.5226 12.3758 16.8504 13.4855 17.9715 14.2109C19.0567 14.9131 19.7926 15.1488 20.5 15.1488C21.2074 15.1488 21.9433 14.9131 23.0285 14.2109C24.1496 13.4855 25.4774 12.3758 27.39 10.7723L31.8157 7.06166C32.468 6.51474 33.4375 6.60341 33.9811 7.25971Z" fill="#7DA1FD"/>
</svg>
