<svg width="56" height="56" viewBox="0 0 56 56" fill="none" xmlns="http://www.w3.org/2000/svg">
<circle cx="28.5" cy="20.9141" r="9.5" stroke="#E56083" stroke-width="3"/>
<path d="M46.6072 42.6019C46.6072 48.4009 46.6072 53.1019 27.9405 53.1019C9.27388 53.1019 9.27388 48.4009 9.27388 42.6019C9.27388 36.8029 17.6312 32.1019 27.9405 32.1019C38.2499 32.1019 46.6072 36.8029 46.6072 42.6019Z" stroke="#E56083" stroke-width="3"/>
<path d="M28.5002 20C25.8062 20 22.2807 18.972 20.0782 18.2265C18.7554 17.7788 18.0002 16.9135 18.0002 15.9894V11H39.0002V15.9894C39.0002 16.9135 38.2449 17.7788 36.9222 18.2265C34.7196 18.972 31.1942 20 28.5002 20Z" fill="white"/>
<path d="M20.0782 18.2265L20.5591 16.8057L20.5591 16.8057L20.0782 18.2265ZM36.9222 18.2265L37.4031 19.6473L37.4031 19.6473L36.9222 18.2265ZM39.0002 11H40.5002V9.5H39.0002V11ZM18.0002 11V9.5H16.5002V11H18.0002ZM19.5973 19.6473C21.7997 20.3928 25.5344 21.5 28.5002 21.5V18.5C26.078 18.5 22.7618 17.5513 20.5591 16.8057L19.5973 19.6473ZM28.5002 21.5C31.466 21.5 35.2007 20.3928 37.4031 19.6473L36.4413 16.8057C34.2386 17.5513 30.9224 18.5 28.5002 18.5V21.5ZM40.5002 15.9894V11H37.5002V15.9894H40.5002ZM19.5002 15.9894V11H16.5002V15.9894H19.5002ZM37.4031 19.6473C39.0383 19.0938 40.5002 17.8223 40.5002 15.9894H37.5002C37.5002 16.0048 37.4516 16.4637 36.4413 16.8057L37.4031 19.6473ZM20.5591 16.8057C19.5488 16.4637 19.5002 16.0048 19.5002 15.9894H16.5002C16.5002 17.8223 17.9621 19.0938 19.5973 19.6473L20.5591 16.8057ZM18.0002 12.5H39.0002V9.5H18.0002V12.5Z" fill="#FF8EAC"/>
<path d="M25.896 3.54507C27.8854 2.81831 30.1148 2.81831 32.1043 3.54507L41.4719 6.96724C43.5096 7.71163 43.5096 10.2884 41.4719 11.0328L32.1044 14.4549C30.115 15.1817 27.8855 15.1817 25.8961 14.4549L16.5284 11.0328C14.4908 10.2884 14.4908 7.71158 16.5284 6.96719L25.896 3.54507Z" fill="white" stroke="#FF8EAC" stroke-width="3"/>
<path d="M33.5287 8.91721L40.8435 11.5297" stroke="#FFADAD" stroke-width="3" stroke-linecap="round"/>
<path d="M44.0002 15L40.8436 11.5295" stroke="#FFADAD" stroke-width="3" stroke-linecap="round"/>
</svg>
